<svg width="365" height="69.2" xmlns="http://www.w3.org/2000/svg">
 <style type="text/css">.st0{fill:#88C773;}
	.st1{fill:#FFFFFF;}</style>

 <title>Untitled-2</title>
 <g>
  <title>background</title>
  <rect fill="none" id="canvas_background" height="71.2" width="367" y="-1" x="-1"/>
 </g>
 <g>
  <title>Layer 1</title>
  <polygon id="svg_1" points="22.6,69.2 57,21.4 48.1,21.3 47.5,21.3 0.1,21 0,29.3 41.5,29.6 13.1,69.1 " class="st0"/>
  <polygon id="svg_2" points="16.1,39.6 44.5,0.1 35,0 0.7,47.8 9.6,47.9 10.2,47.9 57.6,48.2 57.7,39.9 " class="st1"/>
  <path id="svg_3" d="m94.9,21.8c-1.5,-0.1 -3,0.4 -4.2,1.3c-1.1,0.9 -1.7,2.2 -1.6,3.6c-0.1,1.3 0.3,2.6 1.2,3.6c0.9,0.9 2,1.6 3.2,2c1.4,0.5 2.8,0.9 4.3,1.2c1.5,0.4 3.1,0.8 4.6,1.3c1.5,0.5 2.9,1.2 4.3,2c1.3,0.8 2.4,2 3.2,3.4c0.8,1.7 1.3,3.5 1.2,5.4c0,3.5 -1.5,6.8 -4.2,9c-2.8,2.5 -6.5,3.8 -11.1,3.8c-4.6,0 -8.4,-1.1 -11.2,-3.2c-2.9,-2.2 -4.5,-5.6 -4.3,-9.2l9.2,0c0.3,3.7 2.5,5.6 6.4,5.6c1.7,0.1 3.3,-0.5 4.6,-1.5c1.1,-1 1.8,-2.5 1.7,-4.1c0,-1.6 -0.8,-3.2 -2.3,-4c-1.7,-1 -3.5,-1.8 -5.5,-2.2c-2.1,-0.5 -4.3,-1.1 -6.4,-1.8c-2.1,-0.7 -4,-1.9 -5.5,-3.6c-1.6,-1.9 -2.4,-4.4 -2.3,-6.9c-0.1,-3.6 1.4,-7 4.2,-9.3c3.1,-2.4 6.9,-3.6 10.9,-3.5c4.4,0 8,1 10.7,3s4.2,5.1 4.4,9.2l-9.4,0c-0.1,-1.5 -0.7,-2.9 -1.8,-3.9c-1.3,-0.8 -2.8,-1.3 -4.3,-1.2z" class="st0"/>
  <path id="svg_4" d="m157.6,24.3l8.2,0l-10.4,33.8l-9.2,0l-5.8,-22.7l-5.9,22.7l-9.2,0l-10.4,-33.8l8.7,0l6.4,25.7l6.2,-25.7l9,0l6.1,25.7l6.3,-25.7z" class="st0"/>
  <path id="svg_5" d="m180.3,15.7c0,2.9 -2.3,5.2 -5.2,5.2c-2.9,0 -5.2,-2.3 -5.2,-5.2s2.3,-5.2 5.2,-5.2c2.9,0 5.2,2.3 5.2,5.2zm-9.5,42.4l0,-33.8l8.6,0l0,33.8l-8.6,0z" class="st0"/>
  <path id="svg_6" d="m201.7,51l4.1,0l0,7.2l-5.4,0c-3.5,0 -6.1,-0.8 -8,-2.4c-1.9,-1.6 -2.8,-4.2 -2.8,-7.9l0,-16.6l-3.6,0l0,-7l3.6,0l0,-8.4l8.6,0l0,8.4l7.6,0l0,7l-7.6,0l0,16.6c-0.1,0.9 0.2,1.7 0.8,2.3c0.7,0.6 1.7,0.8 2.7,0.8z" class="st0"/>
  <path id="svg_7" d="m214.8,53.9c-3.1,-3.2 -4.6,-7.4 -4.6,-12.6s1.5,-9.5 4.6,-12.6c3.2,-3.2 7.5,-4.9 12,-4.8c3.7,-0.1 7.3,0.9 10.3,3c2.8,2.1 4.8,5.1 5.6,8.5l-9.3,0c-1.1,-2.8 -3.3,-4.2 -6.6,-4.2c-2.3,-0.1 -4.4,0.9 -5.8,2.7c-1.5,2.2 -2.3,4.8 -2.1,7.4c-0.1,2.6 0.6,5.3 2.1,7.4c1.4,1.8 3.6,2.8 5.8,2.7c3.3,0 5.5,-1.4 6.6,-4.3l9.3,0c-0.9,3.4 -2.9,6.4 -5.7,8.4c-3,2.1 -6.6,3.2 -10.2,3.1c-4.5,0.2 -8.9,-1.5 -12,-4.7z" class="st0"/>
  <path id="svg_8" d="m256.6,12.9l0,16.4c2.2,-3.7 5.7,-5.6 10.5,-5.6c3.6,-0.1 7,1.3 9.5,3.8c2.4,2.5 3.7,6.1 3.7,10.6l0,19.9l-8.5,0l0,-18.5c0.2,-2.2 -0.6,-4.4 -2,-6.1c-1.5,-1.5 -3.5,-2.2 -5.5,-2.1c-2.1,-0.1 -4.1,0.7 -5.5,2.1c-1.4,1.7 -2.2,3.9 -2,6.1l0,18.7l-8.8,0l0,-45.3l8.6,0z" class="st0"/>
  <path id="svg_9" d="m302.1,58.6c-4.5,0.2 -8.9,-1.6 -12,-4.8c-3.1,-3.2 -4.6,-7.4 -4.6,-12.7s1.6,-9.5 4.7,-12.6c3.2,-3.2 7.6,-4.9 12.1,-4.7c4.5,-0.2 8.9,1.5 12.2,4.6c3.2,3.1 4.8,7.2 4.8,12.3c0,1.1 -0.1,2.2 -0.2,3.3l-24.7,0c0.1,2 1,3.9 2.4,5.3c1.5,1.4 3.4,2.1 5.4,2c2.7,0.1 5.3,-1.3 6.6,-3.7l9.3,0c-1,3.2 -3,6 -5.7,7.9c-3.1,2.2 -6.6,3.2 -10.3,3.1zm5.7,-25.5c-1.5,-1.3 -3.5,-2.1 -5.5,-2c-2,-0.1 -3.9,0.7 -5.4,2c-1.5,1.4 -2.4,3.3 -2.6,5.4l16,0c-0.1,-2.1 -1,-4 -2.5,-5.4l0,0z" class="st0"/>
  <path id="svg_10" d="m328.6,53.8c-3.3,-3.2 -5,-7.4 -5,-12.7s1.7,-9.4 5,-12.6c7.1,-6.4 17.8,-6.4 24.9,0c3.3,3.2 5,7.4 5,12.6s-1.7,9.4 -5,12.7c-3.4,3.2 -7.9,5 -12.5,4.8c-4.6,0.2 -9.1,-1.6 -12.4,-4.8zm12.4,-2.4c2.3,0 4.6,-0.9 6.2,-2.7c1.7,-1.8 2.6,-4.3 2.6,-7.5s-0.9,-5.7 -2.6,-7.5c-1.6,-1.7 -3.9,-2.7 -6.2,-2.6c-2.3,0 -4.6,0.9 -6.1,2.6c-1.7,1.8 -2.5,4.3 -2.5,7.5c0,3.3 0.8,5.8 2.5,7.5c1.6,1.8 3.8,2.7 6.1,2.7z" class="st0"/>
 </g>
</svg>